<svg xmlns="http://www.w3.org/2000/svg" viewBox="0 0 500 500" width="500" height="500">
    <!-- Background -->
    <rect width="500" height="500" fill="none" />

    <!-- Central glowing circle -->
    <circle cx="250" cy="250" r="120" fill="none" stroke="#00f7ff" stroke-width="5" />
    <circle cx="250" cy="250" r="90" fill="none" stroke="#007cff" stroke-width="2" />

    <!-- Outer glowing arcs -->
    <path d="M150 250 A100 100 0 0 1 350 250" fill="none" stroke="#00f7ff" stroke-width="3" />
    <path d="M150 250 A100 100 0 0 0 350 250" fill="none" stroke="#007cff" stroke-width="2" />

    <!-- Diagonal lines -->
    <line x1="100" y1="100" x2="400" y2="400" stroke="#00f7ff" stroke-width="1" />
    <line x1="400" y1="100" x2="100" y2="400" stroke="#007cff" stroke-width="1" />

    <!-- Hexagonal grid -->
    <path d="M250 150 L270 180 L250 210 L230 180 Z" fill="none" stroke="#00f7ff" stroke-width="1" />
    <path d="M250 290 L270 320 L250 350 L230 320 Z" fill="none" stroke="#00f7ff" stroke-width="1" />
    <path d="M180 220 L200 250 L180 280 L160 250 Z" fill="none" stroke="#00f7ff" stroke-width="1" />
    <path d="M320 220 L340 250 L320 280 L300 250 Z" fill="none" stroke="#00f7ff" stroke-width="1" />

    <!-- Glow effect -->
    <filter id="glow">
        <feGaussianBlur stdDeviation="3.5" result="coloredBlur" />
        <feMerge>
            <feMergeNode in="coloredBlur" />
            <feMergeNode in="SourceGraphic" />
        </feMerge>
    </filter>
    <g filter="url(#glow)">
        <circle cx="250" cy="250" r="120" fill="none" stroke="#00f7ff" stroke-width="5" />
    </g>
</svg>