<svg xmlns="http://www.w3.org/2000/svg" version="1.1" xmlns:xlink="http://www.w3.org/1999/xlink" xmlns:svgjs="http://svgjs.dev/svgjs" width="1440" height="560" preserveAspectRatio="none" viewBox="0 0 1440 560"><g mask="url(&quot;#SvgjsMask1077&quot;)" fill="none"><rect width="1440" height="560" x="0" y="0" fill="rgba(0, 0, 0, 1)"></rect><path d="M-98.49 351.08L-98.49 351.08" stroke="rgba(0, 61, 76, 1)" stroke-width="1.5"></path><path d="M-98.49 351.08L-100.98 507.29" stroke="rgba(0, 61, 76, 1)" stroke-width="1.5"></path><path d="M-98.49 351.08L85.11 382.29" stroke="rgba(0, 61, 76, 1)" stroke-width="1.5"></path><path d="M-98.49 351.08L-40.56 657.73" stroke="rgba(0, 61, 76, 1)" stroke-width="1.5"></path><path d="M-98.49 351.08L234.54 406.22" stroke="rgba(0, 61, 76, 1)" stroke-width="1.5"></path><path d="M-98.49 351.08L85.63 661.5" stroke="rgba(0, 61, 76, 1)" stroke-width="1.5"></path><path d="M-100.98 507.29L-100.98 507.29" stroke="rgba(0, 61, 76, 1)" stroke-width="1.5"></path><path d="M-100.98 507.29L-40.56 657.73" stroke="rgba(0, 61, 76, 1)" stroke-width="1.5"></path><path d="M-40.56 657.73L-40.56 657.73" stroke="rgba(0, 61, 76, 1)" stroke-width="1.5"></path><path d="M-40.56 657.73L85.63 661.5" stroke="rgba(0, 61, 76, 1)" stroke-width="1.5"></path><path d="M85.11 382.29L85.11 382.29" stroke="rgba(0, 61, 76, 1)" stroke-width="1.5"></path><path d="M85.11 382.29L234.54 406.22" stroke="rgba(0, 61, 76, 1)" stroke-width="1.5"></path><path d="M85.11 382.29L249.04 533.55" stroke="rgba(0, 61, 76, 1)" stroke-width="1.5"></path><path d="M85.11 382.29L-100.98 507.29" stroke="rgba(0, 61, 76, 1)" stroke-width="1.5"></path><path d="M85.11 382.29L85.63 661.5" stroke="rgba(0, 61, 76, 1)" stroke-width="1.5"></path><path d="M85.11 382.29L377.39 344.34" stroke="rgba(0, 61, 76, 1)" stroke-width="1.5"></path><path d="M85.63 661.5L85.63 661.5" stroke="rgba(0, 61, 76, 1)" stroke-width="1.5"></path><path d="M85.63 661.5L257.57 641.85" stroke="rgba(0, 61, 76, 1)" stroke-width="1.5"></path><path d="M85.63 661.5L249.04 533.55" stroke="rgba(0, 61, 76, 1)" stroke-width="1.5"></path><path d="M85.63 661.5L-100.98 507.29" stroke="rgba(0, 61, 76, 1)" stroke-width="1.5"></path><path d="M234.54 406.22L234.54 406.22" stroke="rgba(0, 61, 76, 1)" stroke-width="1.5"></path><path d="M234.54 406.22L249.04 533.55" stroke="rgba(0, 61, 76, 1)" stroke-width="1.5"></path><path d="M249.04 533.55L249.04 533.55" stroke="rgba(0, 61, 76, 1)" stroke-width="1.5"></path><path d="M249.04 533.55L350.01 529.08" stroke="rgba(0, 61, 76, 1)" stroke-width="1.5"></path><path d="M249.04 533.55L257.57 641.85" stroke="rgba(0, 61, 76, 1)" stroke-width="1.5"></path><path d="M249.04 533.55L405.69 662.31" stroke="rgba(0, 61, 76, 1)" stroke-width="1.5"></path><path d="M257.57 641.85L257.57 641.85" stroke="rgba(0, 61, 76, 1)" stroke-width="1.5"></path><path d="M257.57 641.85L350.01 529.08" stroke="rgba(0, 61, 76, 1)" stroke-width="1.5"></path><path d="M377.39 344.34L377.39 344.34" stroke="rgba(0, 61, 76, 1)" stroke-width="1.5"></path><path d="M377.39 344.34L503.98 345.39" stroke="rgba(0, 61, 76, 1)" stroke-width="1.5"></path><path d="M377.39 344.34L234.54 406.22" stroke="rgba(0, 61, 76, 1)" stroke-width="1.5"></path><path d="M377.39 344.34L350.01 529.08" stroke="rgba(0, 61, 76, 1)" stroke-width="1.5"></path><path d="M377.39 344.34L249.04 533.55" stroke="rgba(0, 61, 76, 1)" stroke-width="1.5"></path><path d="M377.39 344.34L559.8 535.28" stroke="rgba(0, 61, 76, 1)" stroke-width="1.5"></path><path d="M350.01 529.08L350.01 529.08" stroke="rgba(0, 61, 76, 1)" stroke-width="1.5"></path><path d="M350.01 529.08L405.69 662.31" stroke="rgba(0, 61, 76, 1)" stroke-width="1.5"></path><path d="M405.69 662.31L405.69 662.31" stroke="rgba(0, 61, 76, 1)" stroke-width="1.5"></path><path d="M405.69 662.31L507.7 664.32" stroke="rgba(0, 61, 76, 1)" stroke-width="1.5"></path><path d="M405.69 662.31L257.57 641.85" stroke="rgba(0, 61, 76, 1)" stroke-width="1.5"></path><path d="M405.69 662.31L559.8 535.28" stroke="rgba(0, 61, 76, 1)" stroke-width="1.5"></path><path d="M405.69 662.31L701.87 679.19" stroke="rgba(0, 61, 76, 1)" stroke-width="1.5"></path><path d="M503.98 345.39L503.98 345.39" stroke="rgba(0, 61, 76, 1)" stroke-width="1.5"></path><path d="M503.98 345.39L559.8 535.28" stroke="rgba(0, 61, 76, 1)" stroke-width="1.5"></path><path d="M559.8 535.28L559.8 535.28" stroke="rgba(0, 61, 76, 1)" stroke-width="1.5"></path><path d="M559.8 535.28L676.65 537.82" stroke="rgba(0, 61, 76, 1)" stroke-width="1.5"></path><path d="M559.8 535.28L507.7 664.32" stroke="rgba(0, 61, 76, 1)" stroke-width="1.5"></path><path d="M507.7 664.32L507.7 664.32" stroke="rgba(0, 61, 76, 1)" stroke-width="1.5"></path><path d="M676.65 537.82L676.65 537.82" stroke="rgba(0, 61, 76, 1)" stroke-width="1.5"></path><path d="M676.65 537.82L701.87 679.19" stroke="rgba(0, 61, 76, 1)" stroke-width="1.5"></path><path d="M701.87 679.19L701.87 679.19" stroke="rgba(0, 61, 76, 1)" stroke-width="1.5"></path><path d="M701.87 679.19L833.13 685.25" stroke="rgba(0, 61, 76, 1)" stroke-width="1.5"></path><path d="M701.87 679.19L826.03 548.45" stroke="rgba(0, 61, 76, 1)" stroke-width="1.5"></path><path d="M701.87 679.19L507.7 664.32" stroke="rgba(0, 61, 76, 1)" stroke-width="1.5"></path><path d="M858.77 241.49L858.77 241.49" stroke="rgba(0, 61, 76, 1)" stroke-width="1.5"></path><path d="M858.77 241.49L956.87 196.33" stroke="rgba(0, 61, 76, 1)" stroke-width="1.5"></path><path d="M858.77 241.49L848.48 390.34" stroke="rgba(0, 61, 76, 1)" stroke-width="1.5"></path><path d="M858.77 241.49L991.68 337.69" stroke="rgba(0, 61, 76, 1)" stroke-width="1.5"></path><path d="M848.48 390.34L848.48 390.34" stroke="rgba(0, 61, 76, 1)" stroke-width="1.5"></path><path d="M848.48 390.34L991.68 337.69" stroke="rgba(0, 61, 76, 1)" stroke-width="1.5"></path><path d="M848.48 390.34L826.03 548.45" stroke="rgba(0, 61, 76, 1)" stroke-width="1.5"></path><path d="M848.48 390.34L987.97 510.53" stroke="rgba(0, 61, 76, 1)" stroke-width="1.5"></path><path d="M826.03 548.45L826.03 548.45" stroke="rgba(0, 61, 76, 1)" stroke-width="1.5"></path><path d="M826.03 548.45L833.13 685.25" stroke="rgba(0, 61, 76, 1)" stroke-width="1.5"></path><path d="M826.03 548.45L676.65 537.82" stroke="rgba(0, 61, 76, 1)" stroke-width="1.5"></path><path d="M833.13 685.25L833.13 685.25" stroke="rgba(0, 61, 76, 1)" stroke-width="1.5"></path><path d="M833.13 685.25L955.42 656.37" stroke="rgba(0, 61, 76, 1)" stroke-width="1.5"></path><path d="M833.13 685.25L676.65 537.82" stroke="rgba(0, 61, 76, 1)" stroke-width="1.5"></path><path d="M833.13 685.25L987.97 510.53" stroke="rgba(0, 61, 76, 1)" stroke-width="1.5"></path><path d="M833.13 685.25L848.48 390.34" stroke="rgba(0, 61, 76, 1)" stroke-width="1.5"></path><path d="M980.77 -77.49L980.77 -77.49" stroke="rgba(0, 61, 76, 1)" stroke-width="1.5"></path><path d="M980.77 -77.49L1144.71 -65.93" stroke="rgba(0, 61, 76, 1)" stroke-width="1.5"></path><path d="M980.77 -77.49L1011.44 88.09" stroke="rgba(0, 61, 76, 1)" stroke-width="1.5"></path><path d="M980.77 -77.49L956.87 196.33" stroke="rgba(0, 61, 76, 1)" stroke-width="1.5"></path><path d="M980.77 -77.49L1283.88 -83.69" stroke="rgba(0, 61, 76, 1)" stroke-width="1.5"></path><path d="M980.77 -77.49L1093.45 232.53" stroke="rgba(0, 61, 76, 1)" stroke-width="1.5"></path><path d="M980.77 -77.49L1270.66 91.76" stroke="rgba(0, 61, 76, 1)" stroke-width="1.5"></path><path d="M1011.44 88.09L1011.44 88.09" stroke="rgba(0, 61, 76, 1)" stroke-width="1.5"></path><path d="M1011.44 88.09L956.87 196.33" stroke="rgba(0, 61, 76, 1)" stroke-width="1.5"></path><path d="M1011.44 88.09L1093.45 232.53" stroke="rgba(0, 61, 76, 1)" stroke-width="1.5"></path><path d="M956.87 196.33L956.87 196.33" stroke="rgba(0, 61, 76, 1)" stroke-width="1.5"></path><path d="M956.87 196.33L1093.45 232.53" stroke="rgba(0, 61, 76, 1)" stroke-width="1.5"></path><path d="M956.87 196.33L991.68 337.69" stroke="rgba(0, 61, 76, 1)" stroke-width="1.5"></path><path d="M956.87 196.33L848.48 390.34" stroke="rgba(0, 61, 76, 1)" stroke-width="1.5"></path><path d="M991.68 337.69L991.68 337.69" stroke="rgba(0, 61, 76, 1)" stroke-width="1.5"></path><path d="M991.68 337.69L1093.45 232.53" stroke="rgba(0, 61, 76, 1)" stroke-width="1.5"></path><path d="M991.68 337.69L1137.49 386.7" stroke="rgba(0, 61, 76, 1)" stroke-width="1.5"></path><path d="M987.97 510.53L987.97 510.53" stroke="rgba(0, 61, 76, 1)" stroke-width="1.5"></path><path d="M987.97 510.53L955.42 656.37" stroke="rgba(0, 61, 76, 1)" stroke-width="1.5"></path><path d="M987.97 510.53L1143.48 557.98" stroke="rgba(0, 61, 76, 1)" stroke-width="1.5"></path><path d="M987.97 510.53L826.03 548.45" stroke="rgba(0, 61, 76, 1)" stroke-width="1.5"></path><path d="M987.97 510.53L991.68 337.69" stroke="rgba(0, 61, 76, 1)" stroke-width="1.5"></path><path d="M955.42 656.37L955.42 656.37" stroke="rgba(0, 61, 76, 1)" stroke-width="1.5"></path><path d="M955.42 656.37L826.03 548.45" stroke="rgba(0, 61, 76, 1)" stroke-width="1.5"></path><path d="M1144.71 -65.93L1144.71 -65.93" stroke="rgba(0, 61, 76, 1)" stroke-width="1.5"></path><path d="M1144.71 -65.93L1283.88 -83.69" stroke="rgba(0, 61, 76, 1)" stroke-width="1.5"></path><path d="M1144.71 -65.93L1270.66 91.76" stroke="rgba(0, 61, 76, 1)" stroke-width="1.5"></path><path d="M1144.71 -65.93L1011.44 88.09" stroke="rgba(0, 61, 76, 1)" stroke-width="1.5"></path><path d="M1093.45 232.53L1093.45 232.53" stroke="rgba(0, 61, 76, 1)" stroke-width="1.5"></path><path d="M1093.45 232.53L1137.49 386.7" stroke="rgba(0, 61, 76, 1)" stroke-width="1.5"></path><path d="M1137.49 386.7L1137.49 386.7" stroke="rgba(0, 61, 76, 1)" stroke-width="1.5"></path><path d="M1137.49 386.7L1248.42 368.89" stroke="rgba(0, 61, 76, 1)" stroke-width="1.5"></path><path d="M1143.48 557.98L1143.48 557.98" stroke="rgba(0, 61, 76, 1)" stroke-width="1.5"></path><path d="M1143.48 557.98L1137.49 386.7" stroke="rgba(0, 61, 76, 1)" stroke-width="1.5"></path><path d="M1143.48 557.98L1308.3 501.29" stroke="rgba(0, 61, 76, 1)" stroke-width="1.5"></path><path d="M1143.48 557.98L1264.57 709.89" stroke="rgba(0, 61, 76, 1)" stroke-width="1.5"></path><path d="M1143.48 557.98L955.42 656.37" stroke="rgba(0, 61, 76, 1)" stroke-width="1.5"></path><path d="M1283.88 -83.69L1283.88 -83.69" stroke="rgba(0, 61, 76, 1)" stroke-width="1.5"></path><path d="M1283.88 -83.69L1434.65 -46.21" stroke="rgba(0, 61, 76, 1)" stroke-width="1.5"></path><path d="M1283.88 -83.69L1270.66 91.76" stroke="rgba(0, 61, 76, 1)" stroke-width="1.5"></path><path d="M1283.88 -83.69L1437.92 106.08" stroke="rgba(0, 61, 76, 1)" stroke-width="1.5"></path><path d="M1283.88 -83.69L1546.29 49.36" stroke="rgba(0, 61, 76, 1)" stroke-width="1.5"></path><path d="M1270.66 91.76L1270.66 91.76" stroke="rgba(0, 61, 76, 1)" stroke-width="1.5"></path><path d="M1270.66 91.76L1272.09 252.78" stroke="rgba(0, 61, 76, 1)" stroke-width="1.5"></path><path d="M1270.66 91.76L1437.92 106.08" stroke="rgba(0, 61, 76, 1)" stroke-width="1.5"></path><path d="M1272.09 252.78L1272.09 252.78" stroke="rgba(0, 61, 76, 1)" stroke-width="1.5"></path><path d="M1272.09 252.78L1248.42 368.89" stroke="rgba(0, 61, 76, 1)" stroke-width="1.5"></path><path d="M1272.09 252.78L1418.88 345.27" stroke="rgba(0, 61, 76, 1)" stroke-width="1.5"></path><path d="M1272.09 252.78L1093.45 232.53" stroke="rgba(0, 61, 76, 1)" stroke-width="1.5"></path><path d="M1272.09 252.78L1458.09 218.16" stroke="rgba(0, 61, 76, 1)" stroke-width="1.5"></path><path d="M1272.09 252.78L1137.49 386.7" stroke="rgba(0, 61, 76, 1)" stroke-width="1.5"></path><path d="M1248.42 368.89L1248.42 368.89" stroke="rgba(0, 61, 76, 1)" stroke-width="1.5"></path><path d="M1308.3 501.29L1308.3 501.29" stroke="rgba(0, 61, 76, 1)" stroke-width="1.5"></path><path d="M1308.3 501.29L1437.72 547.2" stroke="rgba(0, 61, 76, 1)" stroke-width="1.5"></path><path d="M1308.3 501.29L1248.42 368.89" stroke="rgba(0, 61, 76, 1)" stroke-width="1.5"></path><path d="M1264.57 709.89L1264.57 709.89" stroke="rgba(0, 61, 76, 1)" stroke-width="1.5"></path><path d="M1264.57 709.89L1429.01 667.08" stroke="rgba(0, 61, 76, 1)" stroke-width="1.5"></path><path d="M1264.57 709.89L1308.3 501.29" stroke="rgba(0, 61, 76, 1)" stroke-width="1.5"></path><path d="M1264.57 709.89L1437.72 547.2" stroke="rgba(0, 61, 76, 1)" stroke-width="1.5"></path><path d="M1264.57 709.89L955.42 656.37" stroke="rgba(0, 61, 76, 1)" stroke-width="1.5"></path><path d="M1434.65 -46.21L1434.65 -46.21" stroke="rgba(0, 61, 76, 1)" stroke-width="1.5"></path><path d="M1434.65 -46.21L1546.29 49.36" stroke="rgba(0, 61, 76, 1)" stroke-width="1.5"></path><path d="M1434.65 -46.21L1437.92 106.08" stroke="rgba(0, 61, 76, 1)" stroke-width="1.5"></path><path d="M1437.92 106.08L1437.92 106.08" stroke="rgba(0, 61, 76, 1)" stroke-width="1.5"></path><path d="M1437.92 106.08L1458.09 218.16" stroke="rgba(0, 61, 76, 1)" stroke-width="1.5"></path><path d="M1437.92 106.08L1546.29 49.36" stroke="rgba(0, 61, 76, 1)" stroke-width="1.5"></path><path d="M1458.09 218.16L1458.09 218.16" stroke="rgba(0, 61, 76, 1)" stroke-width="1.5"></path><path d="M1418.88 345.27L1418.88 345.27" stroke="rgba(0, 61, 76, 1)" stroke-width="1.5"></path><path d="M1418.88 345.27L1458.09 218.16" stroke="rgba(0, 61, 76, 1)" stroke-width="1.5"></path><path d="M1418.88 345.27L1248.42 368.89" stroke="rgba(0, 61, 76, 1)" stroke-width="1.5"></path><path d="M1418.88 345.27L1308.3 501.29" stroke="rgba(0, 61, 76, 1)" stroke-width="1.5"></path><path d="M1437.72 547.2L1437.72 547.2" stroke="rgba(0, 61, 76, 1)" stroke-width="1.5"></path><path d="M1437.72 547.2L1429.01 667.08" stroke="rgba(0, 61, 76, 1)" stroke-width="1.5"></path><path d="M1437.72 547.2L1579.61 539.78" stroke="rgba(0, 61, 76, 1)" stroke-width="1.5"></path><path d="M1429.01 667.08L1429.01 667.08" stroke="rgba(0, 61, 76, 1)" stroke-width="1.5"></path><path d="M1429.01 667.08L1591.22 663.73" stroke="rgba(0, 61, 76, 1)" stroke-width="1.5"></path><path d="M1546.29 49.36L1546.29 49.36" stroke="rgba(0, 61, 76, 1)" stroke-width="1.5"></path><path d="M1546.29 49.36L1575.79 216.95" stroke="rgba(0, 61, 76, 1)" stroke-width="1.5"></path><path d="M1575.79 216.95L1575.79 216.95" stroke="rgba(0, 61, 76, 1)" stroke-width="1.5"></path><path d="M1575.79 216.95L1458.09 218.16" stroke="rgba(0, 61, 76, 1)" stroke-width="1.5"></path><path d="M1608.06 393.08L1608.06 393.08" stroke="rgba(0, 61, 76, 1)" stroke-width="1.5"></path><path d="M1608.06 393.08L1579.61 539.78" stroke="rgba(0, 61, 76, 1)" stroke-width="1.5"></path><path d="M1608.06 393.08L1575.79 216.95" stroke="rgba(0, 61, 76, 1)" stroke-width="1.5"></path><path d="M1608.06 393.08L1418.88 345.27" stroke="rgba(0, 61, 76, 1)" stroke-width="1.5"></path><path d="M1608.06 393.08L1437.72 547.2" stroke="rgba(0, 61, 76, 1)" stroke-width="1.5"></path><path d="M1608.06 393.08L1458.09 218.16" stroke="rgba(0, 61, 76, 1)" stroke-width="1.5"></path><path d="M1579.61 539.78L1579.61 539.78" stroke="rgba(0, 61, 76, 1)" stroke-width="1.5"></path><path d="M1579.61 539.78L1591.22 663.73" stroke="rgba(0, 61, 76, 1)" stroke-width="1.5"></path><path d="M1579.61 539.78L1429.01 667.08" stroke="rgba(0, 61, 76, 1)" stroke-width="1.5"></path><path d="M1591.22 663.73L1591.22 663.73" stroke="rgba(0, 61, 76, 1)" stroke-width="1.5"></path><path d="M1591.22 663.73L1437.72 547.2" stroke="rgba(0, 61, 76, 1)" stroke-width="1.5"></path><path d="M1591.22 663.73L1608.06 393.08" stroke="rgba(0, 61, 76, 1)" stroke-width="1.5"></path><path d="M1591.22 663.73L1308.3 501.29" stroke="rgba(0, 61, 76, 1)" stroke-width="1.5"></path><circle r="5" cx="-98.49" cy="351.08" fill="rgba(0, 61, 76, 1)"></circle><circle r="5" cx="-100.98" cy="507.29" fill="rgba(0, 61, 76, 1)"></circle><circle r="5" cx="-40.56" cy="657.73" fill="rgba(0, 61, 76, 1)"></circle><circle r="5" cx="85.11" cy="382.29" fill="rgba(0, 61, 76, 1)"></circle><circle r="5" cx="85.63" cy="661.5" fill="rgba(0, 61, 76, 1)"></circle><circle r="5" cx="234.54" cy="406.22" fill="rgba(0, 61, 76, 1)"></circle><circle r="5" cx="249.04" cy="533.55" fill="rgba(0, 61, 76, 1)"></circle><circle r="5" cx="257.57" cy="641.85" fill="rgba(0, 61, 76, 1)"></circle><circle r="5" cx="377.39" cy="344.34" fill="rgba(0, 61, 76, 1)"></circle><circle r="5" cx="350.01" cy="529.08" fill="rgba(0, 61, 76, 1)"></circle><circle r="5" cx="405.69" cy="662.31" fill="rgba(0, 61, 76, 1)"></circle><circle r="5" cx="503.98" cy="345.39" fill="rgba(0, 61, 76, 1)"></circle><circle r="5" cx="559.8" cy="535.28" fill="rgba(0, 61, 76, 1)"></circle><circle r="5" cx="507.7" cy="664.32" fill="rgba(0, 61, 76, 1)"></circle><circle r="5" cx="676.65" cy="537.82" fill="rgba(0, 61, 76, 1)"></circle><circle r="5" cx="701.87" cy="679.19" fill="rgba(0, 61, 76, 1)"></circle><circle r="5" cx="858.77" cy="241.49" fill="rgba(0, 61, 76, 1)"></circle><circle r="5" cx="848.48" cy="390.34" fill="rgba(0, 61, 76, 1)"></circle><circle r="5" cx="826.03" cy="548.45" fill="rgba(0, 61, 76, 1)"></circle><circle r="5" cx="833.13" cy="685.25" fill="rgba(0, 61, 76, 1)"></circle><circle r="5" cx="980.77" cy="-77.49" fill="rgba(0, 61, 76, 1)"></circle><circle r="5" cx="1011.44" cy="88.09" fill="rgba(0, 61, 76, 1)"></circle><circle r="5" cx="956.87" cy="196.33" fill="rgba(0, 61, 76, 1)"></circle><circle r="5" cx="991.68" cy="337.69" fill="rgba(0, 61, 76, 1)"></circle><circle r="5" cx="987.97" cy="510.53" fill="rgba(0, 61, 76, 1)"></circle><circle r="5" cx="955.42" cy="656.37" fill="rgba(0, 61, 76, 1)"></circle><circle r="5" cx="1144.71" cy="-65.93" fill="rgba(0, 61, 76, 1)"></circle><circle r="5" cx="1093.45" cy="232.53" fill="rgba(0, 61, 76, 1)"></circle><circle r="5" cx="1137.49" cy="386.7" fill="rgba(0, 61, 76, 1)"></circle><circle r="5" cx="1143.48" cy="557.98" fill="rgba(0, 61, 76, 1)"></circle><circle r="5" cx="1283.88" cy="-83.69" fill="rgba(0, 61, 76, 1)"></circle><circle r="5" cx="1270.66" cy="91.76" fill="rgba(0, 61, 76, 1)"></circle><circle r="5" cx="1272.09" cy="252.78" fill="rgba(0, 61, 76, 1)"></circle><circle r="5" cx="1248.42" cy="368.89" fill="rgba(0, 61, 76, 1)"></circle><circle r="5" cx="1308.3" cy="501.29" fill="rgba(0, 61, 76, 1)"></circle><circle r="5" cx="1264.57" cy="709.89" fill="rgba(0, 61, 76, 1)"></circle><circle r="5" cx="1434.65" cy="-46.21" fill="rgba(0, 61, 76, 1)"></circle><circle r="5" cx="1437.92" cy="106.08" fill="rgba(0, 61, 76, 1)"></circle><circle r="5" cx="1458.09" cy="218.16" fill="rgba(0, 61, 76, 1)"></circle><circle r="5" cx="1418.88" cy="345.27" fill="rgba(0, 61, 76, 1)"></circle><circle r="5" cx="1437.72" cy="547.2" fill="rgba(0, 61, 76, 1)"></circle><circle r="5" cx="1429.01" cy="667.08" fill="rgba(0, 61, 76, 1)"></circle><circle r="5" cx="1546.29" cy="49.36" fill="rgba(0, 61, 76, 1)"></circle><circle r="5" cx="1575.79" cy="216.95" fill="rgba(0, 61, 76, 1)"></circle><circle r="5" cx="1608.06" cy="393.08" fill="rgba(0, 61, 76, 1)"></circle><circle r="5" cx="1579.61" cy="539.78" fill="rgba(0, 61, 76, 1)"></circle><circle r="5" cx="1591.22" cy="663.73" fill="rgba(0, 61, 76, 1)"></circle><path d="M-57.55 515.84L-57.55 515.84" stroke="hsl(188.89999999999998, 100%, 65%)" stroke-width="1.5"></path><path d="M-57.55 515.84L106.51 500.3" stroke="hsl(188.89999999999998, 100%, 65%)" stroke-width="1.5"></path><path d="M-57.55 515.84L-73.91 694.57" stroke="hsl(188.89999999999998, 100%, 65%)" stroke-width="1.5"></path><path d="M-57.55 515.84L88.73 698.63" stroke="hsl(188.89999999999998, 100%, 65%)" stroke-width="1.5"></path><path d="M106.51 500.3L106.51 500.3" stroke="hsl(188.89999999999998, 100%, 65%)" stroke-width="1.5"></path><path d="M106.51 500.3L88.73 698.63" stroke="hsl(188.89999999999998, 100%, 65%)" stroke-width="1.5"></path><path d="M700.87 693.22L700.87 693.22" stroke="hsl(188.89999999999998, 100%, 65%)" stroke-width="1.5"></path><path d="M700.87 693.22L790.64 663.43" stroke="hsl(188.89999999999998, 100%, 65%)" stroke-width="1.5"></path><path d="M700.87 693.22L688.35 505.25" stroke="hsl(188.89999999999998, 100%, 65%)" stroke-width="1.5"></path><path d="M700.87 693.22L495.87 656.94" stroke="hsl(188.89999999999998, 100%, 65%)" stroke-width="1.5"></path><path d="M1123.21 358.04L1123.21 358.04" stroke="hsl(188.89999999999998, 100%, 65%)" stroke-width="1.5"></path><path d="M1123.21 358.04L1103.46 227.13" stroke="hsl(188.89999999999998, 100%, 65%)" stroke-width="1.5"></path><path d="M1123.21 358.04L1263.34 376.58" stroke="hsl(188.89999999999998, 100%, 65%)" stroke-width="1.5"></path><path d="M1123.21 358.04L1250.17 260.29" stroke="hsl(188.89999999999998, 100%, 65%)" stroke-width="1.5"></path><path d="M1123.21 358.04L955.58 375.43" stroke="hsl(188.89999999999998, 100%, 65%)" stroke-width="1.5"></path><path d="M1095.1 558.42L1095.1 558.42" stroke="hsl(188.89999999999998, 100%, 65%)" stroke-width="1.5"></path><path d="M1095.1 558.42L962.88 545.57" stroke="hsl(188.89999999999998, 100%, 65%)" stroke-width="1.5"></path><path d="M1584.97 89.2L1584.97 89.2" stroke="hsl(188.89999999999998, 100%, 65%)" stroke-width="1.5"></path><path d="M1584.97 89.2L1538.06 233.12" stroke="hsl(188.89999999999998, 100%, 65%)" stroke-width="1.5"></path><path d="M1584.97 89.2L1547.55 -60.39" stroke="hsl(188.89999999999998, 100%, 65%)" stroke-width="1.5"></path><path d="M1584.97 89.2L1409.68 108.47" stroke="hsl(188.89999999999998, 100%, 65%)" stroke-width="1.5"></path><path d="M1584.97 89.2L1424.17 187.71" stroke="hsl(188.89999999999998, 100%, 65%)" stroke-width="1.5"></path><path d="M1538.06 233.12L1538.06 233.12" stroke="hsl(188.89999999999998, 100%, 65%)" stroke-width="1.5"></path><path d="M1538.06 233.12L1424.17 187.71" stroke="hsl(188.89999999999998, 100%, 65%)" stroke-width="1.5"></path><path d="M1538.06 233.12L1608.65 388.4" stroke="hsl(188.89999999999998, 100%, 65%)" stroke-width="1.5"></path><path d="M-73.91 694.57L-73.91 694.57" stroke="hsl(188.89999999999998, 100%, 65%)" stroke-width="1.5"></path><path d="M-73.91 694.57L88.73 698.63" stroke="hsl(188.89999999999998, 100%, 65%)" stroke-width="1.5"></path><path d="M-73.91 694.57L106.51 500.3" stroke="hsl(188.89999999999998, 100%, 65%)" stroke-width="1.5"></path><path d="M88.73 698.63L88.73 698.63" stroke="hsl(188.89999999999998, 100%, 65%)" stroke-width="1.5"></path><path d="M88.73 698.63L258.75 645.8" stroke="hsl(188.89999999999998, 100%, 65%)" stroke-width="1.5"></path><path d="M88.73 698.63L338.6 683.36" stroke="hsl(188.89999999999998, 100%, 65%)" stroke-width="1.5"></path><path d="M258.75 645.8L258.75 645.8" stroke="hsl(188.89999999999998, 100%, 65%)" stroke-width="1.5"></path><path d="M258.75 645.8L338.6 683.36" stroke="hsl(188.89999999999998, 100%, 65%)" stroke-width="1.5"></path><path d="M258.75 645.8L357.99 523.38" stroke="hsl(188.89999999999998, 100%, 65%)" stroke-width="1.5"></path><path d="M258.75 645.8L106.51 500.3" stroke="hsl(188.89999999999998, 100%, 65%)" stroke-width="1.5"></path><path d="M258.75 645.8L495.87 656.94" stroke="hsl(188.89999999999998, 100%, 65%)" stroke-width="1.5"></path><path d="M258.75 645.8L539.38 539.64" stroke="hsl(188.89999999999998, 100%, 65%)" stroke-width="1.5"></path><path d="M357.99 523.38L357.99 523.38" stroke="hsl(188.89999999999998, 100%, 65%)" stroke-width="1.5"></path><path d="M357.99 523.38L338.6 683.36" stroke="hsl(188.89999999999998, 100%, 65%)" stroke-width="1.5"></path><path d="M357.99 523.38L539.38 539.64" stroke="hsl(188.89999999999998, 100%, 65%)" stroke-width="1.5"></path><path d="M357.99 523.38L495.87 656.94" stroke="hsl(188.89999999999998, 100%, 65%)" stroke-width="1.5"></path><path d="M357.99 523.38L106.51 500.3" stroke="hsl(188.89999999999998, 100%, 65%)" stroke-width="1.5"></path><path d="M357.99 523.38L88.73 698.63" stroke="hsl(188.89999999999998, 100%, 65%)" stroke-width="1.5"></path><path d="M338.6 683.36L338.6 683.36" stroke="hsl(188.89999999999998, 100%, 65%)" stroke-width="1.5"></path><path d="M338.6 683.36L495.87 656.94" stroke="hsl(188.89999999999998, 100%, 65%)" stroke-width="1.5"></path><path d="M539.38 539.64L539.38 539.64" stroke="hsl(188.89999999999998, 100%, 65%)" stroke-width="1.5"></path><path d="M539.38 539.64L495.87 656.94" stroke="hsl(188.89999999999998, 100%, 65%)" stroke-width="1.5"></path><path d="M539.38 539.64L688.35 505.25" stroke="hsl(188.89999999999998, 100%, 65%)" stroke-width="1.5"></path><path d="M539.38 539.64L700.87 693.22" stroke="hsl(188.89999999999998, 100%, 65%)" stroke-width="1.5"></path><path d="M539.38 539.64L338.6 683.36" stroke="hsl(188.89999999999998, 100%, 65%)" stroke-width="1.5"></path><path d="M495.87 656.94L495.87 656.94" stroke="hsl(188.89999999999998, 100%, 65%)" stroke-width="1.5"></path><path d="M688.35 505.25L688.35 505.25" stroke="hsl(188.89999999999998, 100%, 65%)" stroke-width="1.5"></path><path d="M688.35 505.25L796.21 497.61" stroke="hsl(188.89999999999998, 100%, 65%)" stroke-width="1.5"></path><path d="M688.35 505.25L790.64 663.43" stroke="hsl(188.89999999999998, 100%, 65%)" stroke-width="1.5"></path><path d="M688.35 505.25L495.87 656.94" stroke="hsl(188.89999999999998, 100%, 65%)" stroke-width="1.5"></path><path d="M796.21 497.61L796.21 497.61" stroke="hsl(188.89999999999998, 100%, 65%)" stroke-width="1.5"></path><path d="M796.21 497.61L790.64 663.43" stroke="hsl(188.89999999999998, 100%, 65%)" stroke-width="1.5"></path><path d="M796.21 497.61L962.88 545.57" stroke="hsl(188.89999999999998, 100%, 65%)" stroke-width="1.5"></path><path d="M796.21 497.61L955.58 375.43" stroke="hsl(188.89999999999998, 100%, 65%)" stroke-width="1.5"></path><path d="M796.21 497.61L700.87 693.22" stroke="hsl(188.89999999999998, 100%, 65%)" stroke-width="1.5"></path><path d="M796.21 497.61L939.37 677.67" stroke="hsl(188.89999999999998, 100%, 65%)" stroke-width="1.5"></path><path d="M790.64 663.43L790.64 663.43" stroke="hsl(188.89999999999998, 100%, 65%)" stroke-width="1.5"></path><path d="M790.64 663.43L939.37 677.67" stroke="hsl(188.89999999999998, 100%, 65%)" stroke-width="1.5"></path><path d="M955.58 375.43L955.58 375.43" stroke="hsl(188.89999999999998, 100%, 65%)" stroke-width="1.5"></path><path d="M955.58 375.43L962.88 545.57" stroke="hsl(188.89999999999998, 100%, 65%)" stroke-width="1.5"></path><path d="M955.58 375.43L1103.46 227.13" stroke="hsl(188.89999999999998, 100%, 65%)" stroke-width="1.5"></path><path d="M962.88 545.57L962.88 545.57" stroke="hsl(188.89999999999998, 100%, 65%)" stroke-width="1.5"></path><path d="M962.88 545.57L939.37 677.67" stroke="hsl(188.89999999999998, 100%, 65%)" stroke-width="1.5"></path><path d="M939.37 677.67L939.37 677.67" stroke="hsl(188.89999999999998, 100%, 65%)" stroke-width="1.5"></path><path d="M939.37 677.67L1095.1 558.42" stroke="hsl(188.89999999999998, 100%, 65%)" stroke-width="1.5"></path><path d="M939.37 677.67L700.87 693.22" stroke="hsl(188.89999999999998, 100%, 65%)" stroke-width="1.5"></path><path d="M1157.46 -107.98L1157.46 -107.98" stroke="hsl(188.89999999999998, 100%, 65%)" stroke-width="1.5"></path><path d="M1157.46 -107.98L1251 -105.11" stroke="hsl(188.89999999999998, 100%, 65%)" stroke-width="1.5"></path><path d="M1157.46 -107.98L1266.46 57.78" stroke="hsl(188.89999999999998, 100%, 65%)" stroke-width="1.5"></path><path d="M1151.58 102.83L1151.58 102.83" stroke="hsl(188.89999999999998, 100%, 65%)" stroke-width="1.5"></path><path d="M1151.58 102.83L1266.46 57.78" stroke="hsl(188.89999999999998, 100%, 65%)" stroke-width="1.5"></path><path d="M1151.58 102.83L1103.46 227.13" stroke="hsl(188.89999999999998, 100%, 65%)" stroke-width="1.5"></path><path d="M1151.58 102.83L1250.17 260.29" stroke="hsl(188.89999999999998, 100%, 65%)" stroke-width="1.5"></path><path d="M1151.58 102.83L1157.46 -107.98" stroke="hsl(188.89999999999998, 100%, 65%)" stroke-width="1.5"></path><path d="M1151.58 102.83L1251 -105.11" stroke="hsl(188.89999999999998, 100%, 65%)" stroke-width="1.5"></path><path d="M1103.46 227.13L1103.46 227.13" stroke="hsl(188.89999999999998, 100%, 65%)" stroke-width="1.5"></path><path d="M1251 -105.11L1251 -105.11" stroke="hsl(188.89999999999998, 100%, 65%)" stroke-width="1.5"></path><path d="M1251 -105.11L1266.46 57.78" stroke="hsl(188.89999999999998, 100%, 65%)" stroke-width="1.5"></path><path d="M1251 -105.11L1409.68 108.47" stroke="hsl(188.89999999999998, 100%, 65%)" stroke-width="1.5"></path><path d="M1251 -105.11L1547.55 -60.39" stroke="hsl(188.89999999999998, 100%, 65%)" stroke-width="1.5"></path><path d="M1251 -105.11L1424.17 187.71" stroke="hsl(188.89999999999998, 100%, 65%)" stroke-width="1.5"></path><path d="M1266.46 57.78L1266.46 57.78" stroke="hsl(188.89999999999998, 100%, 65%)" stroke-width="1.5"></path><path d="M1266.46 57.78L1409.68 108.47" stroke="hsl(188.89999999999998, 100%, 65%)" stroke-width="1.5"></path><path d="M1250.17 260.29L1250.17 260.29" stroke="hsl(188.89999999999998, 100%, 65%)" stroke-width="1.5"></path><path d="M1250.17 260.29L1263.34 376.58" stroke="hsl(188.89999999999998, 100%, 65%)" stroke-width="1.5"></path><path d="M1250.17 260.29L1103.46 227.13" stroke="hsl(188.89999999999998, 100%, 65%)" stroke-width="1.5"></path><path d="M1263.34 376.58L1263.34 376.58" stroke="hsl(188.89999999999998, 100%, 65%)" stroke-width="1.5"></path><path d="M1247.33 546.41L1247.33 546.41" stroke="hsl(188.89999999999998, 100%, 65%)" stroke-width="1.5"></path><path d="M1247.33 546.41L1095.1 558.42" stroke="hsl(188.89999999999998, 100%, 65%)" stroke-width="1.5"></path><path d="M1409.68 108.47L1409.68 108.47" stroke="hsl(188.89999999999998, 100%, 65%)" stroke-width="1.5"></path><path d="M1409.68 108.47L1424.17 187.71" stroke="hsl(188.89999999999998, 100%, 65%)" stroke-width="1.5"></path><path d="M1409.68 108.47L1538.06 233.12" stroke="hsl(188.89999999999998, 100%, 65%)" stroke-width="1.5"></path><path d="M1409.68 108.47L1547.55 -60.39" stroke="hsl(188.89999999999998, 100%, 65%)" stroke-width="1.5"></path><path d="M1424.17 187.71L1424.17 187.71" stroke="hsl(188.89999999999998, 100%, 65%)" stroke-width="1.5"></path><path d="M1424.17 187.71L1412.89 365.82" stroke="hsl(188.89999999999998, 100%, 65%)" stroke-width="1.5"></path><path d="M1424.17 187.71L1250.17 260.29" stroke="hsl(188.89999999999998, 100%, 65%)" stroke-width="1.5"></path><path d="M1412.89 365.82L1412.89 365.82" stroke="hsl(188.89999999999998, 100%, 65%)" stroke-width="1.5"></path><path d="M1412.89 365.82L1263.34 376.58" stroke="hsl(188.89999999999998, 100%, 65%)" stroke-width="1.5"></path><path d="M1414.09 532.22L1414.09 532.22" stroke="hsl(188.89999999999998, 100%, 65%)" stroke-width="1.5"></path><path d="M1414.09 532.22L1443.9 691.89" stroke="hsl(188.89999999999998, 100%, 65%)" stroke-width="1.5"></path><path d="M1414.09 532.22L1412.89 365.82" stroke="hsl(188.89999999999998, 100%, 65%)" stroke-width="1.5"></path><path d="M1414.09 532.22L1247.33 546.41" stroke="hsl(188.89999999999998, 100%, 65%)" stroke-width="1.5"></path><path d="M1414.09 532.22L1543.83 642.62" stroke="hsl(188.89999999999998, 100%, 65%)" stroke-width="1.5"></path><path d="M1443.9 691.89L1443.9 691.89" stroke="hsl(188.89999999999998, 100%, 65%)" stroke-width="1.5"></path><path d="M1443.9 691.89L1543.83 642.62" stroke="hsl(188.89999999999998, 100%, 65%)" stroke-width="1.5"></path><path d="M1443.9 691.89L1596 512.36" stroke="hsl(188.89999999999998, 100%, 65%)" stroke-width="1.5"></path><path d="M1443.9 691.89L1247.33 546.41" stroke="hsl(188.89999999999998, 100%, 65%)" stroke-width="1.5"></path><path d="M1547.55 -60.39L1547.55 -60.39" stroke="hsl(188.89999999999998, 100%, 65%)" stroke-width="1.5"></path><path d="M1547.55 -60.39L1424.17 187.71" stroke="hsl(188.89999999999998, 100%, 65%)" stroke-width="1.5"></path><path d="M1547.55 -60.39L1538.06 233.12" stroke="hsl(188.89999999999998, 100%, 65%)" stroke-width="1.5"></path><path d="M1547.55 -60.39L1266.46 57.78" stroke="hsl(188.89999999999998, 100%, 65%)" stroke-width="1.5"></path><path d="M1608.65 388.4L1608.65 388.4" stroke="hsl(188.89999999999998, 100%, 65%)" stroke-width="1.5"></path><path d="M1608.65 388.4L1596 512.36" stroke="hsl(188.89999999999998, 100%, 65%)" stroke-width="1.5"></path><path d="M1608.65 388.4L1412.89 365.82" stroke="hsl(188.89999999999998, 100%, 65%)" stroke-width="1.5"></path><path d="M1608.65 388.4L1414.09 532.22" stroke="hsl(188.89999999999998, 100%, 65%)" stroke-width="1.5"></path><path d="M1608.65 388.4L1543.83 642.62" stroke="hsl(188.89999999999998, 100%, 65%)" stroke-width="1.5"></path><path d="M1608.65 388.4L1424.17 187.71" stroke="hsl(188.89999999999998, 100%, 65%)" stroke-width="1.5"></path><path d="M1596 512.36L1596 512.36" stroke="hsl(188.89999999999998, 100%, 65%)" stroke-width="1.5"></path><path d="M1596 512.36L1543.83 642.62" stroke="hsl(188.89999999999998, 100%, 65%)" stroke-width="1.5"></path><path d="M1596 512.36L1414.09 532.22" stroke="hsl(188.89999999999998, 100%, 65%)" stroke-width="1.5"></path><path d="M1596 512.36L1412.89 365.82" stroke="hsl(188.89999999999998, 100%, 65%)" stroke-width="1.5"></path><path d="M1543.83 642.62L1543.83 642.62" stroke="hsl(188.89999999999998, 100%, 65%)" stroke-width="1.5"></path><circle r="25" cx="-57.55" cy="515.84" fill="url(&quot;#SvgjsRadialGradient1078&quot;)"></circle><circle r="25" cx="106.51" cy="500.3" fill="url(&quot;#SvgjsRadialGradient1078&quot;)"></circle><circle r="25" cx="700.87" cy="693.22" fill="url(&quot;#SvgjsRadialGradient1078&quot;)"></circle><circle r="25" cx="1123.21" cy="358.04" fill="url(&quot;#SvgjsRadialGradient1078&quot;)"></circle><circle r="25" cx="1095.1" cy="558.42" fill="url(&quot;#SvgjsRadialGradient1078&quot;)"></circle><circle r="25" cx="1584.97" cy="89.2" fill="url(&quot;#SvgjsRadialGradient1078&quot;)"></circle><circle r="25" cx="1538.06" cy="233.12" fill="url(&quot;#SvgjsRadialGradient1078&quot;)"></circle><circle r="5" cx="-73.91" cy="694.57" fill="#80ecff"></circle><circle r="5" cx="88.73" cy="698.63" fill="#80ecff"></circle><circle r="5" cx="258.75" cy="645.8" fill="#80ecff"></circle><circle r="5" cx="357.99" cy="523.38" fill="#80ecff"></circle><circle r="5" cx="338.6" cy="683.36" fill="#80ecff"></circle><circle r="5" cx="539.38" cy="539.64" fill="#80ecff"></circle><circle r="5" cx="495.87" cy="656.94" fill="#80ecff"></circle><circle r="5" cx="688.35" cy="505.25" fill="#80ecff"></circle><circle r="5" cx="796.21" cy="497.61" fill="#80ecff"></circle><circle r="5" cx="790.64" cy="663.43" fill="#80ecff"></circle><circle r="5" cx="955.58" cy="375.43" fill="#80ecff"></circle><circle r="5" cx="962.88" cy="545.57" fill="#80ecff"></circle><circle r="5" cx="939.37" cy="677.67" fill="#80ecff"></circle><circle r="5" cx="1157.46" cy="-107.98" fill="#80ecff"></circle><circle r="5" cx="1151.58" cy="102.83" fill="#80ecff"></circle><circle r="5" cx="1103.46" cy="227.13" fill="#80ecff"></circle><circle r="5" cx="1251" cy="-105.11" fill="#80ecff"></circle><circle r="5" cx="1266.46" cy="57.78" fill="#80ecff"></circle><circle r="5" cx="1250.17" cy="260.29" fill="#80ecff"></circle><circle r="5" cx="1263.34" cy="376.58" fill="#80ecff"></circle><circle r="5" cx="1247.33" cy="546.41" fill="#80ecff"></circle><circle r="5" cx="1409.68" cy="108.47" fill="#80ecff"></circle><circle r="5" cx="1424.17" cy="187.71" fill="#80ecff"></circle><circle r="5" cx="1412.89" cy="365.82" fill="#80ecff"></circle><circle r="5" cx="1414.09" cy="532.22" fill="#80ecff"></circle><circle r="5" cx="1443.9" cy="691.89" fill="#80ecff"></circle><circle r="5" cx="1547.55" cy="-60.39" fill="#80ecff"></circle><circle r="5" cx="1608.65" cy="388.4" fill="#80ecff"></circle><circle r="5" cx="1596" cy="512.36" fill="#80ecff"></circle><circle r="5" cx="1543.83" cy="642.62" fill="#80ecff"></circle></g><defs><mask id="SvgjsMask1077"><rect width="1440" height="560" fill="#ffffff"></rect></mask><radialGradient id="SvgjsRadialGradient1078"><stop stop-color="#ffffff" offset="0.1"></stop><stop stop-color="rgba(0, 217, 255, 1)" offset="0.2"></stop><stop stop-color="rgba(0, 217, 255, 0)" offset="1"></stop></radialGradient></defs></svg>